<?xml version="1.0" standalone="no"?>
<!DOCTYPE svg PUBLIC "-//W3C//DTD SVG 20010904//EN"
 "http://www.w3.org/TR/2001/REC-SVG-20010904/DTD/svg10.dtd">
<svg version="1.0" xmlns="http://www.w3.org/2000/svg"
 width="771.000000pt" height="721.000000pt" viewBox="0 0 771.000000 721.000000"
 preserveAspectRatio="xMidYMid meet">

<g transform="translate(0.000000,721.000000) scale(0.100000,-0.100000)"
fill="#000000" stroke="none">
<path d="M4210 6875 c-46 -48 -158 -124 -247 -169 -193 -96 -373 -146 -745
-206 -507 -82 -693 -130 -890 -232 -182 -93 -337 -229 -417 -365 -20 -35 -39
-63 -42 -63 -13 0 -30 80 -36 166 -11 174 50 349 169 479 l63 69 -50 -28
c-119 -69 -208 -138 -326 -256 -270 -269 -423 -589 -464 -972 l-6 -57 -65 68
c-65 70 -169 132 -243 147 l-33 6 31 -46 c132 -192 197 -480 172 -769 l-11
-132 -84 -165 c-47 -91 -99 -201 -116 -245 -174 -435 -245 -878 -211 -1325 l8
-105 -98 -102 c-102 -108 -179 -212 -179 -244 0 -11 3 -19 8 -19 4 1 34 37 67
82 127 171 301 320 479 412 185 95 372 140 764 182 275 30 272 30 286 -26 6
-23 6 -23 -7 -8 -13 16 -14 15 -13 -12 1 -18 5 -25 10 -19 21 20 28 8 8 -14
-21 -22 -21 -22 -2 -47 24 -30 25 -44 4 -36 -9 3 -12 2 -9 -5 4 -6 13 -8 21
-5 8 3 14 1 14 -4 0 -6 -4 -10 -10 -10 -5 0 -10 -5 -10 -11 0 -5 4 -8 9 -5 11
7 21 -17 21 -52 0 -21 -2 -24 -10 -12 -7 12 -9 10 -7 -7 0 -12 4 -20 8 -18 3
3 15 -5 25 -17 11 -12 13 -18 7 -14 -8 4 -13 2 -13 -6 0 -8 -10 -14 -22 -15
-13 -1 -144 -11 -292 -23 -149 -11 -272 -22 -274 -24 -6 -7 65 -15 248 -31
157 -14 238 -24 323 -41 15 -3 27 -12 27 -19 0 -7 6 -15 12 -18 7 -2 4 -3 -7
-1 -216 32 -599 29 -830 -6 -242 -37 -675 -137 -780 -181 -62 -26 6 -20 137
11 72 17 135 27 139 23 4 -4 24 -63 43 -130 19 -67 51 -166 71 -220 35 -95
189 -419 218 -457 14 -18 18 -14 80 80 l66 99 -59 120 c-87 180 -190 470 -190
537 0 29 -6 27 145 53 281 48 514 62 740 44 151 -12 246 -14 353 -8 34 2 34 3
10 15 -13 7 -49 29 -78 48 -30 20 -60 36 -67 36 -24 0 -13 28 13 34 41 11 489
8 615 -4 233 -21 395 -48 734 -120 562 -119 965 -139 1405 -69 358 57 733 201
1013 391 315 214 364 246 385 252 35 11 29 -35 -10 -80 l-33 -37 32 17 c18 9
34 16 38 16 3 0 5 -18 5 -40 0 -38 1 -39 26 -30 134 52 351 291 455 505 84
174 116 285 140 490 11 89 10 116 -10 248 -37 254 -137 559 -180 549 -6 -1
-26 15 -44 35 -42 50 -79 86 -150 145 -64 53 -66 59 -10 26 99 -57 181 -128
224 -193 18 -27 38 -53 45 -57 17 -11 63 -125 72 -178 4 -25 12 -45 17 -44 14
2 24 70 19 134 -15 198 -142 379 -328 470 -125 62 -305 92 -331 56 -9 -12 -27
-10 -110 15 -55 16 -140 36 -190 44 -106 18 -302 20 -375 4 -29 -6 -57 -12
-64 -13 -10 -1 -125 -54 -134 -62 -2 -1 4 -13 13 -27 9 -15 12 -28 6 -31 -5
-3 -61 -75 -124 -159 -471 -625 -1050 -1036 -1822 -1292 -320 -106 -628 -178
-1270 -294 -540 -99 -728 -141 -805 -181 -45 -24 -33 -24 86 0 136 28 461 88
507 94 30 4 37 2 33 -9 -3 -8 -1 -17 5 -20 5 -4 7 -11 3 -16 -3 -5 -1 -16 6
-24 7 -8 7 -15 1 -19 -5 -4 -8 -16 -6 -27 4 -19 1 -20 -28 -15 -70 14 -398 18
-504 7 -132 -14 -153 -19 -147 -36 7 -17 -10 -26 -164 -84 -71 -27 -152 -61
-180 -75 l-52 -26 -6 26 c-11 42 4 420 20 529 61 406 204 785 422 1112 104
157 179 248 318 392 435 445 953 707 1581 797 166 24 524 24 690 0 375 -54
742 -180 1027 -354 78 -48 88 -51 113 -41 l20 8 -20 1 c-11 2 -23 2 -27 1 -3
0 -5 7 -3 17 1 9 -3 21 -9 25 -7 6 -4 7 7 3 9 -3 17 -1 17 4 0 6 -4 10 -10 10
-5 0 -10 12 -10 26 0 14 -4 23 -10 19 -14 -9 -12 8 3 24 10 11 9 13 -5 8 -10
-4 -18 -2 -18 3 0 6 7 10 15 10 8 0 15 4 15 10 0 5 -8 6 -17 3 -15 -6 -16 -4
-6 8 9 11 8 18 -1 31 -7 10 -16 15 -19 12 -3 -3 -4 2 -3 13 2 10 1 23 -3 28
-8 15 -10 36 -3 31 4 -2 8 7 8 20 2 22 1 23 -15 6 -9 -10 -13 -13 -8 -8 10 14
9 38 -2 32 -11 -7 -9 13 3 33 7 11 5 13 -7 8 -9 -3 -19 -1 -23 5 -4 6 -3 8 2
5 6 -3 16 -2 24 4 10 5 11 9 3 9 -7 0 -10 6 -7 14 3 7 -2 21 -11 30 -9 9 -11
16 -5 16 6 0 8 5 5 10 -4 6 -11 7 -17 4 -7 -5 -8 -2 -4 5 5 7 15 10 25 7 13
-5 13 -4 -2 8 -14 11 -15 15 -5 20 7 3 3 4 -10 2 -20 -4 -21 -2 -10 12 8 10 9
13 1 9 -6 -4 -14 -3 -18 3 -3 6 4 10 17 11 13 0 17 3 10 6 -6 2 -10 9 -7 13 3
5 0 12 -6 16 -7 4 -9 3 -5 -4 3 -6 2 -13 -3 -16 -5 -4 -8 2 -6 11 2 10 4 22 4
26 1 5 6 5 12 2 12 -8 -12 37 -26 47 -5 4 -13 4 -19 1 -5 -3 -6 -1 -2 5 4 6
14 8 24 5 16 -7 16 -5 0 18 -10 16 -13 31 -8 39 11 17 3 31 -13 24 -8 -3 -13
3 -13 15 0 11 4 17 8 15 4 -3 5 2 2 10 -3 9 -11 13 -18 10 -6 -3 -3 1 6 9 17
13 16 15 -5 26 -12 6 -15 10 -5 7 14 -4 17 9 8 34 -1 3 -2 9 -1 13 1 5 -4 5
-10 2 -6 -4 -48 -9 -93 -12 -112 -6 -225 15 -436 82 -339 108 -446 122 -600
79 -17 -5 -5 9 39 46 103 86 265 245 354 349 144 166 200 242 117 156z m680
-969 c0 -2 -7 -7 -16 -10 -8 -3 -12 -2 -9 4 6 10 25 14 25 6z m94 -424 c3 -5
-1 -9 -9 -9 -8 0 -12 4 -9 9 3 4 7 8 9 8 2 0 6 -4 9 -8z m1797 -734 c39 -77
59 -166 58 -263 l-1 -80 -13 63 c-8 35 -34 100 -58 146 -48 90 -53 106 -63
187 -3 30 -8 59 -11 64 -16 37 64 -71 88 -117z m-4804 -1633 c0 -8 -4 -15 -9
-15 -10 0 -11 14 -1 23 9 10 10 9 10 -8z m8 -45 c-3 -5 -12 -10 -18 -10 -7 0
-6 4 3 10 19 12 23 12 15 0z m1 -43 c2 -19 -11 -23 -21 -7 -3 6 0 10 7 10 10
0 9 3 -2 11 -12 8 -12 10 -1 7 8 -2 15 -12 17 -21z m18 -142 c-4 -8 -11 -12
-16 -9 -6 4 -5 10 3 15 19 12 19 11 13 -6z"/>
<path d="M7313 5223 c9 -2 23 -2 30 0 6 3 -1 5 -18 5 -16 0 -22 -2 -12 -5z"/>
<path d="M7125 5201 c-99 -27 -184 -63 -268 -115 -105 -66 -160 -129 -134
-155 28 -28 108 2 167 64 46 47 89 74 158 96 32 10 47 18 34 18 -16 1 -22 6
-20 19 1 9 -1 22 -5 29 -9 14 64 38 158 52 50 7 53 9 20 9 -22 1 -72 -7 -110
-17z"/>
<path d="M7413 5213 c9 -2 25 -2 35 0 9 3 1 5 -18 5 -19 0 -27 -2 -17 -5z"/>
<path d="M7502 5198 c47 -12 88 -50 88 -80 0 -28 -8 -39 -40 -61 -13 -9 -19
-17 -13 -17 7 0 24 10 39 23 48 42 28 103 -43 133 -18 8 -40 14 -50 13 -10 -1
-1 -5 19 -11z"/>
<path d="M7137 5113 c18 -2 50 -2 70 0 21 2 7 4 -32 4 -38 0 -55 -2 -38 -4z"/>
<path d="M7278 5103 c7 -3 16 -2 19 1 4 3 -2 6 -13 5 -11 0 -14 -3 -6 -6z"/>
<path d="M7488 5033 c6 -2 18 -2 25 0 6 3 1 5 -13 5 -14 0 -19 -2 -12 -5z"/>
<path d="M2011 2754 c0 -11 3 -14 6 -6 3 7 2 16 -1 19 -3 4 -6 -2 -5 -13z"/>
<path d="M2016 2668 c3 -5 10 -6 15 -3 13 9 11 12 -6 12 -8 0 -12 -4 -9 -9z"/>
<path d="M5784 1483 c-95 -139 -172 -231 -304 -367 -406 -418 -938 -690 -1530
-781 -143 -23 -495 -31 -646 -16 -451 46 -896 208 -1259 459 -185 127 -390
309 -510 451 l-60 71 -138 0 -138 0 56 -72 c483 -625 1196 -1025 1990 -1119
251 -30 617 -13 890 42 652 130 1264 503 1680 1024 l56 70 -2 168 c-1 92 -5
167 -9 167 -5 0 -39 -44 -76 -97z"/>
<path d="M1284 1513 c-5 -10 -20 -35 -33 -55 l-23 -38 76 0 76 0 -36 55 c-20
30 -40 55 -43 55 -3 0 -11 -8 -17 -17z"/>
<path d="M2972 1053 c153 -2 403 -2 555 0 153 1 28 2 -277 2 -305 0 -430 -1
-278 -2z"/>
</g>
</svg>
