<?xml version="1.0" standalone="no"?>
<!DOCTYPE svg PUBLIC "-//W3C//DTD SVG 20010904//EN"
 "http://www.w3.org/TR/2001/REC-SVG-20010904/DTD/svg10.dtd">
<svg version="1.0" xmlns="http://www.w3.org/2000/svg"
 width="500.000000pt" height="500.000000pt" viewBox="0 0 500.000000 500.000000"
 preserveAspectRatio="xMidYMid meet">

<g transform="translate(0.000000,500.000000) scale(0.100000,-0.100000)"
fill="#000000" stroke="none">
<path d="M0 2500 l0 -2500 2500 0 2500 0 0 2500 0 2500 -2500 0 -2500 0 0
-2500z m2370 1695 c57 -29 73 -99 49 -217 -9 -45 -8 -84 5 -191 35 -293 11
-585 -73 -869 -16 -54 -17 -68 -6 -72 10 -3 63 81 171 272 87 152 160 286 162
298 2 12 -4 36 -13 54 -22 43 -23 112 -1 145 49 75 153 86 212 22 67 -72 50
-166 -40 -223 -39 -25 -57 -49 -125 -169 -119 -211 -189 -340 -186 -343 1 -1
175 83 386 186 211 104 400 194 419 202 54 21 98 57 120 100 51 100 214 61
236 -55 13 -72 -22 -134 -90 -160 -44 -17 -45 -17 -101 10 -40 19 -65 24 -86
20 -85 -19 -449 -183 -599 -270 -108 -63 -221 -137 -216 -142 2 -2 44 5 92 17
183 44 249 52 460 57 183 5 233 2 370 -17 l159 -22 53 21 c69 27 120 27 163
-2 72 -48 76 -143 8 -210 -38 -38 -41 -39 -95 -35 -50 4 -60 9 -107 55 -29 28
-62 56 -74 62 -46 23 -276 51 -423 51 -315 0 -519 -48 -944 -221 -121 -49
-223 -88 -227 -87 -3 2 18 46 49 98 203 350 292 757 252 1150 -18 174 -25 195
-80 237 -59 46 -80 80 -80 128 0 104 107 168 200 120z m-132 -744 c7 -50 1
-51 -460 -51 l-428 0 0 -645 0 -645 23 0 c33 0 1902 122 1904 124 2 2 6 96 10
210 3 114 10 209 15 212 5 4 20 -4 34 -17 l24 -22 0 -309 0 -308 -22 0 c-41 0
-732 -51 -755 -56 -21 -4 -23 -10 -23 -79 l0 -75 53 0 c50 0 88 -13 76 -25 -8
-7 -524 -45 -621 -45 -45 0 -78 4 -78 10 0 10 12 13 85 28 l40 8 3 72 c2 40
-1 72 -5 72 -19 0 -743 -50 -795 -54 l-58 -6 0 815 0 815 488 -2 487 -3 3 -24z
m960 -778 c21 -29 15 -91 -13 -118 -66 -67 -179 22 -134 106 25 47 115 54 147
12z m124 -1249 c37 -19 39 -26 17 -52 -17 -22 -20 -23 -41 -8 -30 21 -81 20
-107 -1 -12 -10 -24 -35 -28 -55 -5 -32 -1 -41 25 -68 35 -34 50 -37 98 -14
32 16 36 15 54 -1 16 -14 17 -21 8 -32 -54 -66 -191 -53 -238 22 -35 56 -23
156 24 194 48 40 128 46 188 15z m-1766 -6 c25 -25 22 -77 -5 -99 -20 -17 -21
-18 -2 -24 27 -8 44 -55 32 -88 -16 -42 -58 -57 -161 -57 l-90 0 0 146 0 146
105 -4 c82 -2 108 -7 121 -20z m144 -75 c0 -108 11 -133 61 -133 46 0 59 31
59 137 l0 93 35 0 35 0 0 -110 c0 -107 -1 -110 -29 -142 -28 -31 -33 -33 -100
-33 -63 0 -73 3 -96 26 -32 32 -44 81 -45 182 l0 77 40 0 40 0 0 -97z m471 68
c38 -39 40 -96 4 -139 l-24 -29 29 -47 30 -46 -43 0 c-39 0 -44 3 -65 40 -18
33 -28 40 -52 40 -28 0 -30 -2 -30 -40 0 -39 -1 -40 -35 -40 l-35 0 0 145 0
145 96 0 c92 0 97 -1 125 -29z m159 -28 l1 -58 52 58 c49 53 56 57 97 57 l44
0 -35 -37 c-79 -85 -77 -72 -22 -155 27 -40 53 -79 57 -85 5 -10 -4 -13 -37
-13 -43 0 -46 2 -81 56 -36 54 -38 55 -57 38 -12 -11 -19 -30 -19 -56 0 -38 0
-38 -40 -38 l-40 0 0 145 0 145 40 0 40 0 0 -57z m460 27 c0 -29 -2 -30 -45
-30 l-45 0 0 -115 0 -115 -35 0 -35 0 0 115 0 115 -45 0 c-43 0 -45 1 -45 30
l0 30 125 0 125 0 0 -30z m260 -1 l0 -31 -75 4 -75 4 0 -27 c0 -28 1 -28 68
-31 65 -3 67 -4 70 -30 l3 -28 -70 0 -71 0 0 -30 0 -30 80 0 80 0 0 -30 0 -30
-120 0 -120 0 0 145 0 145 115 0 115 0 0 -31z m420 -29 l0 -60 60 0 60 0 0 60
0 60 40 0 40 0 0 -145 0 -145 -40 0 -40 0 0 55 0 55 -60 0 -60 0 0 -55 0 -55
-40 0 -40 0 0 145 0 145 40 0 40 0 0 -60z m-1850 -405 c0 -8 -9 -15 -20 -15
-18 0 -20 -7 -20 -55 0 -42 -3 -55 -15 -55 -12 0 -15 13 -15 55 0 48 -2 55
-20 55 -11 0 -20 7 -20 15 0 12 13 15 55 15 42 0 55 -3 55 -15z m190 0 c0 -10
-11 -15 -35 -15 -24 0 -35 -5 -35 -15 0 -10 11 -15 35 -15 19 0 35 -4 35 -10
0 -5 -16 -10 -35 -10 -28 0 -35 -4 -35 -20 0 -17 7 -20 40 -20 22 0 40 -4 40
-10 0 -5 -25 -10 -55 -10 l-55 0 0 63 c0 35 3 67 7 70 3 4 26 7 50 7 32 0 43
-4 43 -15z m206 0 c20 -15 15 -18 -29 -15 -54 3 -75 -40 -37 -75 16 -15 25
-16 44 -7 28 12 41 5 25 -15 -16 -18 -69 -16 -91 4 -18 16 -24 68 -10 89 10
15 44 33 63 34 8 0 24 -7 35 -15z m169 -31 l35 -47 0 47 c0 34 4 46 15 46 12
0 15 -14 15 -70 0 -86 -14 -91 -62 -24 l-33 47 -3 -47 c-5 -72 -22 -54 -22 24
0 39 4 70 10 70 5 0 25 -21 45 -46z m279 25 c49 -39 22 -119 -42 -119 -43 0
-72 26 -72 63 0 37 7 49 35 65 29 17 49 15 79 -9z m156 -39 l0 -60 30 0 c17 0
30 -4 30 -10 0 -5 -20 -10 -45 -10 l-45 0 0 70 c0 56 3 70 15 70 12 0 15 -13
15 -60z m265 35 c30 -30 31 -54 4 -89 -38 -49 -129 -20 -129 41 0 32 43 73 75
73 14 0 37 -11 50 -25z m221 10 c21 -16 16 -18 -32 -15 -17 1 -36 -6 -43 -14
-19 -23 -5 -64 24 -72 30 -7 45 1 45 27 0 10 5 19 10 19 17 0 12 -57 -6 -64
-36 -14 -73 -6 -93 20 -27 35 -26 59 4 89 27 28 62 32 91 10z m144 -55 c0 -56
-3 -70 -15 -70 -12 0 -15 14 -15 63 0 35 3 67 7 70 17 18 23 1 23 -63z m207 0
c24 -53 28 -70 17 -70 -8 0 -17 7 -20 15 -4 9 -19 15 -40 15 -22 0 -37 -6 -40
-15 -4 -8 -12 -15 -19 -15 -10 0 -5 20 17 70 17 39 36 70 43 70 6 0 25 -31 42
-70z"/>
<path d="M2253 4128 c-26 -28 -30 -44 -20 -81 15 -54 98 -66 133 -19 53 70
-54 164 -113 100z"/>
<path d="M2735 3585 c-14 -13 -25 -31 -25 -40 0 -49 52 -83 95 -63 50 23 50
99 0 118 -37 14 -43 13 -70 -15z"/>
<path d="M3510 3350 c-53 -53 7 -143 72 -109 30 16 38 28 38 62 0 34 -32 67
-65 67 -14 0 -34 -9 -45 -20z"/>
<path d="M3766 2789 c-52 -41 -20 -129 48 -129 30 0 76 39 76 65 0 29 -29 72
-52 79 -36 9 -43 8 -72 -15z"/>
<path d="M1407 1383 c-4 -3 -7 -17 -7 -30 0 -21 5 -23 45 -23 49 0 67 18 45
45 -12 15 -71 21 -83 8z"/>
<path d="M1400 1239 c0 -30 1 -30 46 -27 32 2 51 9 58 21 15 24 -6 37 -61 37
-41 0 -43 -1 -43 -31z"/>
<path d="M2025 1381 c-3 -2 -5 -24 -5 -48 l0 -43 39 0 c58 0 94 49 59 78 -14
10 -86 21 -93 13z"/>
<path d="M2382 948 c-26 -26 2 -78 41 -78 27 0 51 44 37 69 -12 24 -58 29 -78
9z"/>
<path d="M2802 948 c-32 -32 4 -87 48 -73 25 8 37 50 20 70 -15 18 -51 20 -68
3z"/>
<path d="M3402 930 c-10 -26 -3 -34 22 -28 13 3 13 7 1 28 l-14 25 -9 -25z"/>
</g>
</svg>
